<svg id="visual" viewBox="0 0 960 540" width="960" height="540" xmlns="http://www.w3.org/2000/svg" xmlns:xlink="http://www.w3.org/1999/xlink" version="1.1"><path d="M892 540L893.5 535.7C895 531.3 898 522.7 901.2 514.2C904.3 505.7 907.7 497.3 896.5 488.8C885.3 480.3 859.7 471.7 858 463C856.3 454.3 878.7 445.7 880.3 437C882 428.3 863 419.7 861.5 411.2C860 402.7 876 394.3 877.5 385.8C879 377.3 866 368.7 856.3 360C846.7 351.3 840.3 342.7 843.7 334.2C847 325.7 860 317.3 868 308.8C876 300.3 879 291.7 882.2 283C885.3 274.3 888.7 265.7 891.8 257C895 248.3 898 239.7 896.3 231.2C894.7 222.7 888.3 214.3 880.3 205.8C872.3 197.3 862.7 188.7 854.7 180C846.7 171.3 840.3 162.7 840.3 154.2C840.3 145.7 846.7 137.3 851.5 128.8C856.3 120.3 859.7 111.7 866.2 103C872.7 94.3 882.3 85.7 884 77C885.7 68.3 879.3 59.7 872.8 51.2C866.3 42.7 859.7 34.3 864.3 25.8C869 17.3 885 8.7 893 4.3L901 0L960 0L960 4.3C960 8.7 960 17.3 960 25.8C960 34.3 960 42.7 960 51.2C960 59.7 960 68.3 960 77C960 85.7 960 94.3 960 103C960 111.7 960 120.3 960 128.8C960 137.3 960 145.7 960 154.2C960 162.7 960 171.3 960 180C960 188.7 960 197.3 960 205.8C960 214.3 960 222.7 960 231.2C960 239.7 960 248.3 960 257C960 265.7 960 274.3 960 283C960 291.7 960 300.3 960 308.8C960 317.3 960 325.7 960 334.2C960 342.7 960 351.3 960 360C960 368.7 960 377.3 960 385.8C960 394.3 960 402.7 960 411.2C960 419.7 960 428.3 960 437C960 445.7 960 454.3 960 463C960 471.7 960 480.3 960 488.8C960 497.3 960 505.7 960 514.2C960 522.7 960 531.3 960 535.7L960 540Z" fill="#473a3f"></path><path d="M825 540L828.2 535.7C831.3 531.3 837.7 522.7 842.3 514.2C847 505.7 850 497.3 840.3 488.8C830.7 480.3 808.3 471.7 805.2 463C802 454.3 818 445.7 818 437C818 428.3 802 419.7 805.2 411.2C808.3 402.7 830.7 394.3 835.5 385.8C840.3 377.3 827.7 368.7 818.2 360C808.7 351.3 802.3 342.7 799.2 334.2C796 325.7 796 317.3 799.2 308.8C802.3 300.3 808.7 291.7 816.7 283C824.7 274.3 834.3 265.7 842.3 257C850.3 248.3 856.7 239.7 858.2 231.2C859.7 222.7 856.3 214.3 848.3 205.8C840.3 197.3 827.7 188.7 815 180C802.3 171.3 789.7 162.7 788 154.2C786.3 145.7 795.7 137.3 797.2 128.8C798.7 120.3 792.3 111.7 802 103C811.7 94.3 837.3 85.7 843.8 77C850.3 68.3 837.7 59.7 831.3 51.2C825 42.7 825 34.3 833 25.8C841 17.3 857 8.7 865 4.3L873 0L902 0L894 4.3C886 8.7 870 17.3 865.3 25.8C860.7 34.3 867.3 42.7 873.8 51.2C880.3 59.7 886.7 68.3 885 77C883.3 85.7 873.7 94.3 867.2 103C860.7 111.7 857.3 120.3 852.5 128.8C847.7 137.3 841.3 145.7 841.3 154.2C841.3 162.7 847.7 171.3 855.7 180C863.7 188.7 873.3 197.3 881.3 205.8C889.3 214.3 895.7 222.7 897.3 231.2C899 239.7 896 248.3 892.8 257C889.7 265.7 886.3 274.3 883.2 283C880 291.7 877 300.3 869 308.8C861 317.3 848 325.7 844.7 334.2C841.3 342.7 847.7 351.3 857.3 360C867 368.7 880 377.3 878.5 385.8C877 394.3 861 402.7 862.5 411.2C864 419.7 883 428.3 881.3 437C879.7 445.7 857.3 454.3 859 463C860.7 471.7 886.3 480.3 897.5 488.8C908.7 497.3 905.3 505.7 902.2 514.2C899 522.7 896 531.3 894.5 535.7L893 540Z" fill="#3f3338"></path><path d="M757 540L760.3 535.7C763.7 531.3 770.3 522.7 770.3 514.2C770.3 505.7 763.7 497.3 757.2 488.8C750.7 480.3 744.3 471.7 744.3 463C744.3 454.3 750.7 445.7 747.5 437C744.3 428.3 731.7 419.7 733.3 411.2C735 402.7 751 394.3 754.2 385.8C757.3 377.3 747.7 368.7 741.3 360C735 351.3 732 342.7 730.5 334.2C729 325.7 729 317.3 735.3 308.8C741.7 300.3 754.3 291.7 763.8 283C773.3 274.3 779.7 265.7 782.8 257C786 248.3 786 239.7 782.8 231.2C779.7 222.7 773.3 214.3 763.8 205.8C754.3 197.3 741.7 188.7 725.7 180C709.7 171.3 690.3 162.7 693.5 154.2C696.7 145.7 722.3 137.3 732 128.8C741.7 120.3 735.3 111.7 744.8 103C754.3 94.3 779.7 85.7 789.2 77C798.7 68.3 792.3 59.7 782.8 51.2C773.3 42.7 760.7 34.3 767.2 25.8C773.7 17.3 799.3 8.7 812.2 4.3L825 0L874 0L866 4.3C858 8.7 842 17.3 834 25.8C826 34.3 826 42.7 832.3 51.2C838.7 59.7 851.3 68.3 844.8 77C838.3 85.7 812.7 94.3 803 103C793.3 111.7 799.7 120.3 798.2 128.8C796.7 137.3 787.3 145.7 789 154.2C790.7 162.7 803.3 171.3 816 180C828.7 188.7 841.3 197.3 849.3 205.8C857.3 214.3 860.7 222.7 859.2 231.2C857.7 239.7 851.3 248.3 843.3 257C835.3 265.7 825.7 274.3 817.7 283C809.7 291.7 803.3 300.3 800.2 308.8C797 317.3 797 325.7 800.2 334.2C803.3 342.7 809.7 351.3 819.2 360C828.7 368.7 841.3 377.3 836.5 385.8C831.7 394.3 809.3 402.7 806.2 411.2C803 419.7 819 428.3 819 437C819 445.7 803 454.3 806.2 463C809.3 471.7 831.7 480.3 841.3 488.8C851 497.3 848 505.7 843.3 514.2C838.7 522.7 832.3 531.3 829.2 535.7L826 540Z" fill="#372d31"></path><path d="M633 540L613.7 535.7C594.3 531.3 555.7 522.7 552.3 514.2C549 505.7 581 497.3 592.3 488.8C603.7 480.3 594.3 471.7 591.2 463C588 454.3 591 445.7 573.3 437C555.7 428.3 517.3 419.7 504.5 411.2C491.7 402.7 504.3 394.3 525.2 385.8C546 377.3 575 368.7 581.5 360C588 351.3 572 342.7 551.2 334.2C530.3 325.7 504.7 317.3 498.2 308.8C491.7 300.3 504.3 291.7 514 283C523.7 274.3 530.3 265.7 541.7 257C553 248.3 569 239.7 557.7 231.2C546.3 222.7 507.7 214.3 512.3 205.8C517 197.3 565 188.7 579.5 180C594 171.3 575 162.7 578.3 154.2C581.7 145.7 607.3 137.3 613.7 128.8C620 120.3 607 111.7 603.7 103C600.3 94.3 606.7 85.7 600.3 77C594 68.3 575 59.7 554.3 51.2C533.7 42.7 511.3 34.3 512.8 25.8C514.3 17.3 539.7 8.7 552.3 4.3L565 0L826 0L813.2 4.3C800.3 8.7 774.7 17.3 768.2 25.8C761.7 34.3 774.3 42.7 783.8 51.2C793.3 59.7 799.7 68.3 790.2 77C780.7 85.7 755.3 94.3 745.8 103C736.3 111.7 742.7 120.3 733 128.8C723.3 137.3 697.7 145.7 694.5 154.2C691.3 162.7 710.7 171.3 726.7 180C742.7 188.7 755.3 197.3 764.8 205.8C774.3 214.3 780.7 222.7 783.8 231.2C787 239.7 787 248.3 783.8 257C780.7 265.7 774.3 274.3 764.8 283C755.3 291.7 742.7 300.3 736.3 308.8C730 317.3 730 325.7 731.5 334.2C733 342.7 736 351.3 742.3 360C748.7 368.7 758.3 377.3 755.2 385.8C752 394.3 736 402.7 734.3 411.2C732.7 419.7 745.3 428.3 748.5 437C751.7 445.7 745.3 454.3 745.3 463C745.3 471.7 751.7 480.3 758.2 488.8C764.7 497.3 771.3 505.7 771.3 514.2C771.3 522.7 764.7 531.3 761.3 535.7L758 540Z" fill="#30262a"></path><path d="M575 540L551 535.7C527 531.3 479 522.7 474.2 514.2C469.3 505.7 507.7 497.3 523.7 488.8C539.7 480.3 533.3 471.7 533.3 463C533.3 454.3 539.7 445.7 523.7 437C507.7 428.3 469.3 419.7 451.8 411.2C434.3 402.7 437.7 394.3 460 385.8C482.3 377.3 523.7 368.7 533.2 360C542.7 351.3 520.3 342.7 494.8 334.2C469.3 325.7 440.7 317.3 429.5 308.8C418.3 300.3 424.7 291.7 432.7 283C440.7 274.3 450.3 265.7 466.3 257C482.3 248.3 504.7 239.7 491.8 231.2C479 222.7 431 214.3 434.2 205.8C437.3 197.3 491.7 188.7 510.8 180C530 171.3 514 162.7 518.8 154.2C523.7 145.7 549.3 137.3 555.8 128.8C562.3 120.3 549.7 111.7 548 103C546.3 94.3 555.7 85.7 544.3 77C533 68.3 501 59.7 475.5 51.2C450 42.7 431 34.3 431 25.8C431 17.3 450 8.7 459.5 4.3L469 0L566 0L553.3 4.3C540.7 8.7 515.3 17.3 513.8 25.8C512.3 34.3 534.7 42.7 555.3 51.2C576 59.7 595 68.3 601.3 77C607.7 85.7 601.3 94.3 604.7 103C608 111.7 621 120.3 614.7 128.8C608.3 137.3 582.7 145.7 579.3 154.2C576 162.7 595 171.3 580.5 180C566 188.7 518 197.3 513.3 205.8C508.7 214.3 547.3 222.7 558.7 231.2C570 239.7 554 248.3 542.7 257C531.3 265.7 524.7 274.3 515 283C505.3 291.7 492.7 300.3 499.2 308.8C505.7 317.3 531.3 325.7 552.2 334.2C573 342.7 589 351.3 582.5 360C576 368.7 547 377.3 526.2 385.8C505.3 394.3 492.7 402.7 505.5 411.2C518.3 419.7 556.7 428.3 574.3 437C592 445.7 589 454.3 592.2 463C595.3 471.7 604.7 480.3 593.3 488.8C582 497.3 550 505.7 553.3 514.2C556.7 522.7 595.3 531.3 614.7 535.7L634 540Z" fill="#282024"></path><path d="M537 540L509.7 535.7C482.3 531.3 427.7 522.7 419.7 514.2C411.7 505.7 450.3 497.3 464.8 488.8C479.3 480.3 469.7 471.7 471.2 463C472.7 454.3 485.3 445.7 470.8 437C456.3 428.3 414.7 419.7 397.2 411.2C379.7 402.7 386.3 394.3 412 385.8C437.7 377.3 482.3 368.7 493.5 360C504.7 351.3 482.3 342.7 458.3 334.2C434.3 325.7 408.7 317.3 395.8 308.8C383 300.3 383 291.7 387.8 283C392.7 274.3 402.3 265.7 421.5 257C440.7 248.3 469.3 239.7 459.7 231.2C450 222.7 402 214.3 405.2 205.8C408.3 197.3 462.7 188.7 478.7 180C494.7 171.3 472.3 162.7 474 154.2C475.7 145.7 501.3 137.3 511 128.8C520.7 120.3 514.3 111.7 514.3 103C514.3 94.3 520.7 85.7 509.5 77C498.3 68.3 469.7 59.7 442.5 51.2C415.3 42.7 389.7 34.3 388 25.8C386.3 17.3 408.7 8.7 419.8 4.3L431 0L470 0L460.5 4.3C451 8.7 432 17.3 432 25.8C432 34.3 451 42.7 476.5 51.2C502 59.7 534 68.3 545.3 77C556.7 85.7 547.3 94.3 549 103C550.7 111.7 563.3 120.3 556.8 128.8C550.3 137.3 524.7 145.7 519.8 154.2C515 162.7 531 171.3 511.8 180C492.7 188.7 438.3 197.3 435.2 205.8C432 214.3 480 222.7 492.8 231.2C505.7 239.7 483.3 248.3 467.3 257C451.3 265.7 441.7 274.3 433.7 283C425.7 291.7 419.3 300.3 430.5 308.8C441.7 317.3 470.3 325.7 495.8 334.2C521.3 342.7 543.7 351.3 534.2 360C524.7 368.7 483.3 377.3 461 385.8C438.7 394.3 435.3 402.7 452.8 411.2C470.3 419.7 508.7 428.3 524.7 437C540.7 445.7 534.3 454.3 534.3 463C534.3 471.7 540.7 480.3 524.7 488.8C508.7 497.3 470.3 505.7 475.2 514.2C480 522.7 528 531.3 552 535.7L576 540Z" fill="#211a1d"></path><path d="M297 540L285.7 535.7C274.3 531.3 251.7 522.7 243.7 514.2C235.7 505.7 242.3 497.3 247.2 488.8C252 480.3 255 471.7 250.2 463C245.3 454.3 232.7 445.7 234.3 437C236 428.3 252 419.7 256.8 411.2C261.7 402.7 255.3 394.3 258.5 385.8C261.7 377.3 274.3 368.7 275.8 360C277.3 351.3 267.7 342.7 254.8 334.2C242 325.7 226 317.3 224.5 308.8C223 300.3 236 291.7 236 283C236 274.3 223 265.7 219.7 257C216.3 248.3 222.7 239.7 225.8 231.2C229 222.7 229 214.3 238.7 205.8C248.3 197.3 267.7 188.7 266.2 180C264.7 171.3 242.3 162.7 248.7 154.2C255 145.7 290 137.3 301.2 128.8C312.3 120.3 299.7 111.7 299.7 103C299.7 94.3 312.3 85.7 307.5 77C302.7 68.3 280.3 59.7 262.8 51.2C245.3 42.7 232.7 34.3 234.3 25.8C236 17.3 252 8.7 260 4.3L268 0L432 0L420.8 4.3C409.7 8.7 387.3 17.3 389 25.8C390.7 34.3 416.3 42.7 443.5 51.2C470.7 59.7 499.3 68.3 510.5 77C521.7 85.7 515.3 94.3 515.3 103C515.3 111.7 521.7 120.3 512 128.8C502.3 137.3 476.7 145.7 475 154.2C473.3 162.7 495.7 171.3 479.7 180C463.7 188.7 409.3 197.3 406.2 205.8C403 214.3 451 222.7 460.7 231.2C470.3 239.7 441.7 248.3 422.5 257C403.3 265.7 393.7 274.3 388.8 283C384 291.7 384 300.3 396.8 308.8C409.7 317.3 435.3 325.7 459.3 334.2C483.3 342.7 505.7 351.3 494.5 360C483.3 368.7 438.7 377.3 413 385.8C387.3 394.3 380.7 402.7 398.2 411.2C415.7 419.7 457.3 428.3 471.8 437C486.3 445.7 473.7 454.3 472.2 463C470.7 471.7 480.3 480.3 465.8 488.8C451.3 497.3 412.7 505.7 420.7 514.2C428.7 522.7 483.3 531.3 510.7 535.7L538 540Z" fill="#20191c"></path><path d="M249 540L241 535.7C233 531.3 217 522.7 212.2 514.2C207.3 505.7 213.7 497.3 218.3 488.8C223 480.3 226 471.7 221.2 463C216.3 454.3 203.7 445.7 205.3 437C207 428.3 223 419.7 224.7 411.2C226.3 402.7 213.7 394.3 213.7 385.8C213.7 377.3 226.3 368.7 231 360C235.7 351.3 232.3 342.7 222.7 334.2C213 325.7 197 317.3 195.5 308.8C194 300.3 207 291.7 207 283C207 274.3 194 265.7 187.5 257C181 248.3 181 239.7 182.7 231.2C184.3 222.7 187.7 214.3 197.3 205.8C207 197.3 223 188.7 219.8 180C216.7 171.3 194.3 162.7 202.3 154.2C210.3 145.7 248.7 137.3 261.5 128.8C274.3 120.3 261.7 111.7 260 103C258.3 94.3 267.7 85.7 259.7 77C251.7 68.3 226.3 59.7 212 51.2C197.7 42.7 194.3 34.3 199 25.8C203.7 17.3 216.3 8.7 222.7 4.3L229 0L269 0L261 4.3C253 8.7 237 17.3 235.3 25.8C233.7 34.3 246.3 42.7 263.8 51.2C281.3 59.7 303.7 68.3 308.5 77C313.3 85.7 300.7 94.3 300.7 103C300.7 111.7 313.3 120.3 302.2 128.8C291 137.3 256 145.7 249.7 154.2C243.3 162.7 265.7 171.3 267.2 180C268.7 188.7 249.3 197.3 239.7 205.8C230 214.3 230 222.7 226.8 231.2C223.7 239.7 217.3 248.3 220.7 257C224 265.7 237 274.3 237 283C237 291.7 224 300.3 225.5 308.8C227 317.3 243 325.7 255.8 334.2C268.7 342.7 278.3 351.3 276.8 360C275.3 368.7 262.7 377.3 259.5 385.8C256.3 394.3 262.7 402.7 257.8 411.2C253 419.7 237 428.3 235.3 437C233.7 445.7 246.3 454.3 251.2 463C256 471.7 253 480.3 248.2 488.8C243.3 497.3 236.7 505.7 244.7 514.2C252.7 522.7 275.3 531.3 286.7 535.7L298 540Z" fill="#1e181b"></path><path d="M220 540L208.8 535.7C197.7 531.3 175.3 522.7 167.3 514.2C159.3 505.7 165.7 497.3 172 488.8C178.3 480.3 184.7 471.7 178.2 463C171.7 454.3 152.3 445.7 150.7 437C149 428.3 165 419.7 169.8 411.2C174.7 402.7 168.3 394.3 173.2 385.8C178 377.3 194 368.7 200.5 360C207 351.3 204 342.7 192.8 334.2C181.7 325.7 162.3 317.3 160.7 308.8C159 300.3 175 291.7 175 283C175 274.3 159 265.7 147.8 257C136.7 248.3 130.3 239.7 133.5 231.2C136.7 222.7 149.3 214.3 162.2 205.8C175 197.3 188 188.7 184.8 180C181.7 171.3 162.3 162.7 167 154.2C171.7 145.7 200.3 137.3 213.2 128.8C226 120.3 223 111.7 223 103C223 94.3 226 85.7 214.8 77C203.7 68.3 178.3 59.7 165.7 51.2C153 42.7 153 34.3 161 25.8C169 17.3 185 8.7 193 4.3L201 0L230 0L223.7 4.3C217.3 8.7 204.7 17.3 200 25.8C195.3 34.3 198.7 42.7 213 51.2C227.3 59.7 252.7 68.3 260.7 77C268.7 85.7 259.3 94.3 261 103C262.7 111.7 275.3 120.3 262.5 128.8C249.7 137.3 211.3 145.7 203.3 154.2C195.3 162.7 217.7 171.3 220.8 180C224 188.7 208 197.3 198.3 205.8C188.7 214.3 185.3 222.7 183.7 231.2C182 239.7 182 248.3 188.5 257C195 265.7 208 274.3 208 283C208 291.7 195 300.3 196.5 308.8C198 317.3 214 325.7 223.7 334.2C233.3 342.7 236.7 351.3 232 360C227.3 368.7 214.7 377.3 214.7 385.8C214.7 394.3 227.3 402.7 225.7 411.2C224 419.7 208 428.3 206.3 437C204.7 445.7 217.3 454.3 222.2 463C227 471.7 224 480.3 219.3 488.8C214.7 497.3 208.3 505.7 213.2 514.2C218 522.7 234 531.3 242 535.7L250 540Z" fill="#1d1719"></path><path d="M172 540L160.8 535.7C149.7 531.3 127.3 522.7 116.2 514.2C105 505.7 105 497.3 111.3 488.8C117.7 480.3 130.3 471.7 127 463C123.7 454.3 104.3 445.7 104.3 437C104.3 428.3 123.7 419.7 128.5 411.2C133.3 402.7 123.7 394.3 125.3 385.8C127 377.3 140 368.7 140 360C140 351.3 127 342.7 117.3 334.2C107.7 325.7 101.3 317.3 103 308.8C104.7 300.3 114.3 291.7 111.2 283C108 274.3 92 265.7 84 257C76 248.3 76 239.7 82.3 231.2C88.7 222.7 101.3 214.3 112.5 205.8C123.7 197.3 133.3 188.7 131.8 180C130.3 171.3 117.7 162.7 119.3 154.2C121 145.7 137 137.3 145 128.8C153 120.3 153 111.7 159.3 103C165.7 94.3 178.3 85.7 165.5 77C152.7 68.3 114.3 59.7 95.2 51.2C76 42.7 76 34.3 87.2 25.8C98.3 17.3 120.7 8.7 131.8 4.3L143 0L202 0L194 4.3C186 8.7 170 17.3 162 25.8C154 34.3 154 42.7 166.7 51.2C179.3 59.7 204.7 68.3 215.8 77C227 85.7 224 94.3 224 103C224 111.7 227 120.3 214.2 128.8C201.3 137.3 172.7 145.7 168 154.2C163.3 162.7 182.7 171.3 185.8 180C189 188.7 176 197.3 163.2 205.8C150.3 214.3 137.7 222.7 134.5 231.2C131.3 239.7 137.7 248.3 148.8 257C160 265.7 176 274.3 176 283C176 291.7 160 300.3 161.7 308.8C163.3 317.3 182.7 325.7 193.8 334.2C205 342.7 208 351.3 201.5 360C195 368.7 179 377.3 174.2 385.8C169.3 394.3 175.7 402.7 170.8 411.2C166 419.7 150 428.3 151.7 437C153.3 445.7 172.7 454.3 179.2 463C185.7 471.7 179.3 480.3 173 488.8C166.7 497.3 160.3 505.7 168.3 514.2C176.3 522.7 198.7 531.3 209.8 535.7L221 540Z" fill="#1b1618"></path><path d="M0 540L0 535.7C0 531.3 0 522.7 0 514.2C0 505.7 0 497.3 0 488.8C0 480.3 0 471.7 0 463C0 454.3 0 445.7 0 437C0 428.3 0 419.7 0 411.2C0 402.7 0 394.3 0 385.8C0 377.3 0 368.7 0 360C0 351.3 0 342.7 0 334.2C0 325.7 0 317.3 0 308.8C0 300.3 0 291.7 0 283C0 274.3 0 265.7 0 257C0 248.3 0 239.7 0 231.2C0 222.7 0 214.3 0 205.8C0 197.3 0 188.7 0 180C0 171.3 0 162.7 0 154.2C0 145.7 0 137.3 0 128.8C0 120.3 0 111.7 0 103C0 94.3 0 85.7 0 77C0 68.3 0 59.7 0 51.2C0 42.7 0 34.3 0 25.8C0 17.3 0 8.7 0 4.3L0 0L144 0L132.8 4.3C121.7 8.7 99.3 17.3 88.2 25.8C77 34.3 77 42.7 96.2 51.2C115.3 59.7 153.7 68.3 166.5 77C179.3 85.7 166.7 94.3 160.3 103C154 111.7 154 120.3 146 128.8C138 137.3 122 145.7 120.3 154.2C118.7 162.7 131.3 171.3 132.8 180C134.3 188.7 124.7 197.3 113.5 205.8C102.3 214.3 89.7 222.7 83.3 231.2C77 239.7 77 248.3 85 257C93 265.7 109 274.3 112.2 283C115.3 291.7 105.7 300.3 104 308.8C102.3 317.3 108.7 325.7 118.3 334.2C128 342.7 141 351.3 141 360C141 368.7 128 377.3 126.3 385.8C124.7 394.3 134.3 402.7 129.5 411.2C124.7 419.7 105.3 428.3 105.3 437C105.3 445.7 124.7 454.3 128 463C131.3 471.7 118.7 480.3 112.3 488.8C106 497.3 106 505.7 117.2 514.2C128.3 522.7 150.7 531.3 161.8 535.7L173 540Z" fill="#1a1517"></path></svg>